PathFileType	4	(X/Y/Z)	C:/Users/opensim2020/Desktop/walking_exp_matlab/subject06_walking22_straight_03.trc																																																																																																																																		
DataRate	CameraRate	NumFrames	NumMarkers	Units	OrigDataRate	OrigDataStartFrame	OrigNumFrames																																																																																																																														
100	100	6	44	mm	100	1693	77																																																																																																																														
Frame#	Time	LFHD			RFHD			LBHD			RBHD			C7			T10			CLAV			STRN			RBAK			LSHO			LUPA			LELB			LFRM			LWRA			LWRB			LFIN			RSHO			RUPA			RELB			RFRM			RWRA			RWRB			RFIN			LASI			RASI			LPSI			RPSI			LTHI			LKNE			LTIB			LANK			LHEE			LTOE			RTHI			RKNE			RTIB			RANK			RHEE			RTOE			*39			*40			*41			*42			*43		
		X1	Y1	Z1	X2	Y2	Z2	X3	Y3	Z3	X4	Y4	Z4	X5	Y5	Z5	X6	Y6	Z6	X7	Y7	Z7	X8	Y8	Z8	X9	Y9	Z9	X10	Y10	Z10	X11	Y11	Z11	X12	Y12	Z12	X13	Y13	Z13	X14	Y14	Z14	X15	Y15	Z15	X16	Y16	Z16	X17	Y17	Z17	X18	Y18	Z18	X19	Y19	Z19	X20	Y20	Z20	X21	Y21	Z21	X22	Y22	Z22	X23	Y23	Z23	X24	Y24	Z24	X25	Y25	Z25	X26	Y26	Z26	X27	Y27	Z27	X28	Y28	Z28	X29	Y29	Z29	X30	Y30	Z30	X31	Y31	Z31	X32	Y32	Z32	X33	Y33	Z33	X34	Y34	Z34	X35	Y35	Z35	X36	Y36	Z36	X37	Y37	Z37	X38	Y38	Z38	X39	Y39	Z39	X40	Y40	Z40	X41	Y41	Z41	X42	Y42	Z42	X43	Y43	Z43	X44	Y44	Z44
																																																																																																																																					
10	0.09	-434.30774	1611.84436	1370.0824	-418.37842	1611.43604	1501.50085	-568.19263	1563.33313	1390.42322	-550.94104	1567.28369	1518.90161	-571.04761	1417.97388	1446.81775	-641.07544	1093.57129	1449.27344	-467.37878	1328.06982	1446.60303	-448.79291	1150.67004	1447.79175	-662.83716	1261.18994	1532.98694	-522.74774	1362.18994	1284.2135	-594.63885	1178.53137	1206.90601	-644.04584	1079.0448	1189.28967	-684.32281	938.39227	1151.0592	-675.20575	803.94958	1170.60583	-735.84808	830.72424	1144.08716	-736.27551	740.95874	1129.82837	-506.20148	1369.8385	1606.9928	-542.83105	1182.5614	1711.76514	-519.02521	1067.16138	1736.95459	-449.72195	973.1087	1748.96033	-332.12695	892.32764	1700.7594	-370.21695	862.10138	1746.79102	-295.98398	824.04749	1739.29065	-449.31866	922.38983	1365.797	-490.25992	930.95001	1583.96973	-608.16003	949.85583	1359.85437	-635.95514	962.62976	1525.68396	-433.85123	619.12262	1284.526	-358.06204	478.01422	1319.73059	-289.91705	235.38803	1327.16223	-218.90358	77.60726	1368.46875	-249.19347	48.41144	1415.37866	-76.78771	106.80229	1374.00903	-615.53589	615.27209	1630.1283	-646.72253	490.67639	1613.77014	-804.05579	269.00186	1611.64587	-902.06494	108.60198	1568.82971	-950.91962	100.45539	1525.94348	-769.61414	35.47924	1564.96033	-525.41974	1658.59253	1437.55139	NaN	NaN	NaN	NaN	NaN	NaN	NaN	NaN	NaN	NaN	NaN	NaN
11	0.1	-419.52649	1611.82385	1369.29199	-403.69217	1611.09558	1500.80383	-553.38208	1563.10876	1389.4895	-536.19196	1566.76355	1517.85144	-555.63983	1417.28345	1445.83862	-625.05054	1092.84741	1449.21887	-452.43301	1327.88977	1445.15808	-432.92181	1150.70337	1446.78491	-647.11859	1260.88806	1532.86853	-509.28973	1361.92322	1283.16089	-581.46637	1178.27576	1206.53284	-630.68561	1078.71704	1189.35608	-671.76495	938.30676	1151.37366	-662.3905	803.89252	1170.72009	-723.56787	830.86273	1144.56824	-724.82855	741.01495	1130.43066	-489.9433	1369.48596	1605.69189	-526.51538	1182.74963	1711.27991	-503.60068	1067.47034	1736.80066	-434.22	973.50659	1748.79224	-316.61426	893.17639	1700.46301	-354.53198	862.72485	1746.49146	-280.15121	825.43146	1739.20886	-431.85281	922.95123	1366.06006	-474.55075	930.49048	1584.32971	-590.75653	949.58649	1359.04028	-619.64935	961.51288	1524.44324	-413.69077	620.68475	1284.03918	-340.40131	478.77969	1319.59509	-275.65042	234.32446	1326.05908	-207.6843	75.23435	1366.62207	-238.66148	45.98492	1413.10889	-65.71159	103.15707	1373.23914	-600.81635	615.01141	1630.50806	-632.14221	490.24478	1614.8988	-795.05914	272.44711	1612.26709	-898.02319	115.24611	1569.73901	-946.64972	109.33949	1526.70972	-769.47778	35.47142	1564.92798	-510.76367	1658.26416	1436.84937	NaN	NaN	NaN	NaN	NaN	NaN	NaN	NaN	NaN	NaN	NaN	NaN
12	0.11	-404.59341	1612.21448	1368.39856	-388.88632	1611.22314	1499.96936	-538.43994	1563.50208	1388.24866	-521.49939	1566.90894	1516.75195	-540.86523	1417.11731	1444.98071	-608.41095	1092.4259	1449.01172	-437.216	1328.2395	1443.54932	-416.73682	1151.3092	1445.48083	-631.10687	1260.75049	1532.57153	-495.83322	1362.20068	1282.12524	-568.02521	1178.58228	1206.07288	-617.08459	1078.96741	1189.3645	-658.18237	938.36774	1151.6969	-648.99854	803.87469	1171.16699	-710.08185	831.12427	1145.11108	-711.56995	741.11487	1131.09766	-473.8887	1369.7948	1604.12805	-510.10104	1183.47144	1710.61328	-488.14761	1068.20691	1736.3291	-419.20389	974.18011	1748.5011	-301.90765	893.69751	1700.25012	-339.83865	863.21857	1746.2605	-265.38385	826.2533	1739.41504	-414.04974	924.12811	1365.97632	-458.3092	930.33862	1583.9823	-573.09448	949.79736	1358.34351	-602.67303	960.69958	1523.23071	-393.51859	622.76166	1283.83789	-322.07654	480.16312	1319.61121	-262.87933	233.17729	1324.70239	-199.39934	72.5201	1364.79602	-231.63838	44.1534	1410.89709	-57.03853	97.24284	1372.46143	-585.00684	614.82532	1630.75037	-616.36987	489.96283	1616.04407	-785.05371	276.36707	1612.87976	-892.92358	122.61498	1570.54309	-941.14758	119.17009	1527.35229	-769.22229	35.48992	1564.84509	-495.85645	1658.56201	1435.92932	NaN	NaN	NaN	NaN	NaN	NaN	NaN	NaN	NaN	NaN	NaN	NaN
13	0.12	-389.47217	1612.99573	1367.37903	-374.02979	1611.74329	1498.86597	-523.38739	1564.43591	1386.94702	-506.71579	1567.5802	1515.47449	-526.06842	1417.38184	1443.95251	-591.35309	1092.30115	1448.55688	-421.81213	1329.14368	1441.97229	-400.01926	1152.50244	1444.17078	-614.98004	1260.79932	1532.16943	-482.02277	1362.91589	1281.02649	-554.31213	1179.36304	1205.51917	-602.93408	1079.51514	1189.25244	-644.03076	938.75305	1152.01233	-634.27917	804.31213	1171.71216	-695.45972	831.36688	1145.78979	-696.92017	741.46057	1132.02881	-458.07333	1370.69641	1602.45911	-493.66382	1184.6792	1709.65466	-472.81552	1069.49084	1735.44373	-404.67096	975.09967	1748.04028	-287.91315	893.87292	1700.09888	-326.02405	863.60132	1746.01135	-251.69444	826.42999	1739.46826	-395.98596	925.77167	1365.64063	-441.11163	930.75885	1583.31421	-555.03998	950.37933	1357.6521	-585.01855	960.31757	1522.14404	-373.04126	625.13068	1284.32092	-303.49265	481.97849	1319.8064	-250.91971	232.23708	1323.8396	-193.41144	69.37159	1364.74792	-227.35802	43.73832	1410.88806	-50.77145	87.7073	1370.93677	-568.00952	614.73816	1631.02722	-599.12616	489.77249	1617.27808	-773.76825	280.70026	1613.38025	-886.74579	130.7829	1571.23145	-934.11536	130.15532	1527.83289	-769.13885	35.5253	1564.79041	-480.79578	1659.3418	1434.82983	NaN	NaN	NaN	NaN	NaN	NaN	NaN	NaN	NaN	NaN	NaN	NaN
14	0.13	-374.68338	1614.17993	1366.22046	-359.00793	1612.83411	1497.83789	-508.21115	1565.81519	1385.35059	-491.82666	1568.8042	1513.96521	-511.26987	1418.13989	1442.74622	-573.96722	1092.453	1447.99011	-406.29807	1330.5293	1440.23743	-382.98129	1154.18738	1442.70789	-598.72388	1260.93335	1531.55774	-467.93015	1364.14355	1279.76172	-540.21619	1180.62488	1204.82007	-588.37891	1080.42529	1189.06714	-629.12115	939.4187	1152.3031	-618.48462	804.94702	1172.32324	-679.72681	831.47766	1146.70825	-681.09552	741.74005	1133.05139	-442.49664	1372.14539	1600.79272	-477.52148	1186.33997	1708.54956	-457.88107	1071.16455	1734.26086	-390.80899	976.12268	1747.28308	-274.62842	893.67645	1700.02002	-313.14517	863.8244	1745.71777	-238.98007	826.01709	1739.72522	-377.98425	927.71179	1365.03882	-423.03305	931.8053	1582.57324	-536.83173	951.6297	1356.58008	-567.013	960.3537	1521.09265	-353.33896	627.72711	1285.21179	-285.59293	483.98416	1319.78687	-240.08667	231.72598	1324.72266	-188.7144	68.44194	1365.63269	-223.58807	46.47558	1413.47888	-44.76855	74.63854	1368.35864	-549.73596	614.67432	1631.2439	-580.63947	489.83804	1618.41248	-761.20477	285.67169	1613.83423	-879.44489	140.24997	1572.00623	-925.5116	142.45262	1528.01929	-769.56256	35.6401	1564.81458	-465.56696	1660.64502	1433.52197	NaN	NaN	NaN	NaN	NaN	NaN	NaN	NaN	NaN	NaN	NaN	NaN
15	0.14	-358.87411	1616.28015	1364.99182	-344.09927	1614.7854	1496.63342	-492.90128	1567.79016	1383.703	-476.98944	1570.74609	1512.41956	-496.54739	1419.69116	1441.44043	-556.45978	1093.31433	1447.57434	-390.56903	1332.64941	1438.76196	-366.08493	1156.54675	1441.25623	-582.42358	1261.59436	1530.41418	-453.4408	1365.78821	1278.50366	-525.53204	1182.18542	1204.08618	-573.42224	1081.57129	1188.78979	-613.29773	940.17114	1152.57312	-601.61298	805.78442	1172.99438	-663.06592	831.88275	1147.59009	-664.11749	742.11261	1134.21289	-427.14282	1374.18677	1599.29517	-461.7767	1188.36182	1707.29578	-443.11145	1073.18237	1732.95422	-377.14603	977.21704	1746.62756	-261.93161	893.06805	1699.97461	-301.09668	863.784	1745.50195	-227.45764	825.11139	1740.09497	-360.01398	930.05621	1364.04346	-404.3606	932.99414	1581.23779	-518.82568	953.86542	1355.53857	-548.59729	961.00867	1520.29163	-334.63867	630.61945	1286.26099	-268.85492	486.18591	1319.11145	-228.756	232.76834	1325.31995	-184.85655	68.92944	1365.23206	-220.13914	48.8378	1413.02856	-40.09308	66.87333	1367.80029	-530.04767	614.48718	1631.31799	-560.02417	489.42249	1619.51538	-747.05304	291.35092	1614.00085	-870.45837	150.79097	1572.43164	-914.83069	156.61348	1528.02808	-771.40839	35.99416	1565.37878	-450.4454	1662.59485	1431.96802	NaN	NaN	NaN	NaN	NaN	NaN	NaN	NaN	NaN	NaN	NaN	NaN
